# xmcd
#
# Track frame offsets:
#	150
#	15784
#	33846
#	50536
#	64988
#	78780
#	93242
#	106954
#	123109
#	136483
#	152222
#	167741
#	183100
#
# Disc length: 2654 seconds
#
# Revision: 1
# Processed by: cddbd v1.5.1PL0 Copyright (c) Steve Scherf et al.
# Submitted via: audiograbber 1.80
#
DISCID=940a5c0d
DTITLE=JÚNIOR and ADRIANO - LANÇAMENTO
DYEAR=1900
DGENRE=
TTITLE0=DE EMPREGADA A PATROA
TTITLE1=PRA SER FELIZ
TTITLE2=XEQUE MATE
TTITLE3=NEM TCHUM
TTITLE4=GATO PÚ
TTITLE5=NÃO HA COISA MELHOR
TTITLE6=VACA LOUCA
TTITLE7=DEIXA EU VOLTAR
TTITLE8=TACO O PÉ
TTITLE9=AI QUE ÓDIO
TTITLE10=UMA NOITE DE VERÃO
TTITLE11=N LAÇO DA SAUDADE
TTITLE12=LEITE COM CERVEJA
EXTD=
EXTT0=
EXTT1=
EXTT2=
EXTT3=
EXTT4=
EXTT5=
EXTT6=
EXTT7=
EXTT8=
EXTT9=
EXTT10=
EXTT11=
EXTT12=
PLAYORDER=
